<?xml version="1.0" encoding="utf-8"?>
<!-- Generator: Adobe Illustrator 19.1.0, SVG Export Plug-In . SVG Version: 6.00 Build 0)  -->
<svg version="1.1" id="Layer_1" xmlns="http://www.w3.org/2000/svg" xmlns:xlink="http://www.w3.org/1999/xlink" x="0px" y="0px"
	 viewBox="0 0 163.8 163.8" style="enable-background:new 0 0 163.8 163.8;" xml:space="preserve">
<style type="text/css">
	.st0{fill:#231F20;}
	.st1{stroke:#231F20;stroke-width:0.4357;stroke-miterlimit:10;}
	.st2{stroke:#231F20;stroke-width:0.5096;stroke-miterlimit:10;}
	.st3{fill:#FFFFFF;}
</style>
<path d="M98.7,1.7C54.4-7.5,11,20.8,1.7,65.1c-9.3,44.3,19.1,87.7,63.3,96.9c44.3,9.3,87.7-19.1,96.9-63.3
	C171.3,54.4,143,11,98.7,1.7z M61.8,24l54.4,84.9l-1.2,2.7L60.6,26.6L61.8,24z M59.6,28.8l54.4,84.9l-11.7,25.6L47.8,54.4L59.6,28.8
	z M144.8,47l-22.6,48.8l-0.1,0l-5,10.8L62.8,21.8l2.3-5.1l44.5,67l24-51.9C138,36.4,141.8,41.5,144.8,47z M19,116.8l22.6-48.9l0,0
	c1.8-3.9,3.5-7.7,5.2-11.3l54.3,84.8l0.1-0.1l-1.1,2.3l-1.5,3.4l-44-67.9L30.3,132C25.8,127.5,22.1,122.3,19,116.8z"/>
</svg>
