<?xml version="1.0" encoding="utf-8"?>
<!-- Generator: Adobe Illustrator 19.1.0, SVG Export Plug-In . SVG Version: 6.00 Build 0)  -->
<svg version="1.1" id="Layer_1" xmlns="http://www.w3.org/2000/svg" xmlns:xlink="http://www.w3.org/1999/xlink" x="0px" y="0px"
	 viewBox="0 0 146.6 146.6" style="enable-background:new 0 0 146.6 146.6;" xml:space="preserve">
<style type="text/css">
	.st0{fill:#231F20;}
</style>
<g>
	<path class="st0" d="M140.1,43L111,102.8L56.4,2C24.1,9.6,0,38.6,0,73.3c0,10.8,2.4,21.1,6.6,30.3l28.4-58.3l0.6-1.3L90,144.7
		c32.5-7.5,56.7-36.6,56.7-71.4C146.6,62.5,144.3,52.3,140.1,43z M91.6,142.6L36.9,41.5l15.2-31.2l54.7,101.2L91.6,142.6z
		 M108.1,108.8L53.4,7.6l1.6-3.3l54.7,101.2L108.1,108.8z"/>
	<path class="st0" d="M73.3,0c-4.7,0-9.3,0.5-13.7,1.3l50.1,91.6l27.5-55.5C124.7,15.1,100.8,0,73.3,0z"/>
	<path class="st0" d="M9.9,110.1c12.7,21.8,36.3,36.5,63.4,36.5c4.7,0,9.3-0.5,13.7-1.3L37.4,54l-27.4,56.2L9.9,110.1z"/>
</g>
</svg>
