<?xml version="1.0" encoding="utf-8"?>
<!-- Generator: Adobe Illustrator 19.1.0, SVG Export Plug-In . SVG Version: 6.00 Build 0)  -->
<svg version="1.1" id="Layer_1" xmlns="http://www.w3.org/2000/svg" xmlns:xlink="http://www.w3.org/1999/xlink" x="0px" y="0px"
	 viewBox="-228 319.1 154.9 154.9" style="enable-background:new -228 319.1 154.9 154.9;" xml:space="preserve">
<style type="text/css">
	.st0{fill:#E58422;}
</style>
<g>
	<path class="st0" d="M-150.6,319.1c-42.7,0-77.4,34.7-77.4,77.4c0,42.8,34.7,77.4,77.4,77.4s77.4-34.7,77.4-77.4
		C-73.1,353.8-107.8,319.1-150.6,319.1z M-150.6,462c-37.7,0-65.4-27.7-65.4-65.5s27.7-65.4,65.4-65.4s65.4,27.7,65.4,65.4
		S-112.8,462-150.6,462z"/>
	<path class="st0" d="M-113.8,359.4h-73.6c-7.2,0-13,5.8-13,13v48.3c0,7.2,5.8,13,13,13h73.6c7.2,0,13-5.8,13-13v-48.3
		C-100.7,365.2-106.6,359.4-113.8,359.4z M-121.5,369.2l-29.1,29.1l-28.6-28.6L-121.5,369.2z M-109.7,420.7c0,2.2-1.8,4-4,4h-73.7
		c-2.2,0-4-1.8-4-4v-48.3c0-0.6,0.2-1.2,0.4-1.7l37.2,37.2c0.8,0.8,2,1.3,3.2,1.3s2.3-0.5,3.2-1.3l37.2-37.2
		c0.3,0.5,0.4,1.1,0.4,1.7v48.3H-109.7z"/>
</g>
</svg>
