<?xml version="1.0" encoding="utf-8"?>
<!-- Generator: Adobe Illustrator 19.1.0, SVG Export Plug-In . SVG Version: 6.00 Build 0)  -->
<svg version="1.1" id="Layer_1" xmlns="http://www.w3.org/2000/svg" xmlns:xlink="http://www.w3.org/1999/xlink" x="0px" y="0px"
	 viewBox="-280.6 296.7 200.2 200.2" style="enable-background:new -280.6 296.7 200.2 200.2;" xml:space="preserve">
<style type="text/css">
	.st0{fill:#50BFAB;}
	.st1{fill:#FFFFFF;}
</style>
<g>
	<g>
		<path class="st0" d="M-388.7,656.5c-16.6-25.7-33.2-51.3-49.8-77c-17.6,25.7-35.1,51.3-52.7,77
			C-457,656.5-422.8,656.5-388.7,656.5z M-451.2,645c-1.6-1.8-4.2-2.6-6.5-2.2c-4.2,0.8-6.7,5.1-8.7,9c-2-4.2-0.5-9.7,3.4-12.2
			s9.6-1.6,12.5,1.9C-449.4,642.7-449.7,645.6-451.2,645z M-445.8,646.7c-2.3-2.5-1.6-4.8-3.3-7.3c-2.4-3.5-8.2-5.5-13-3.9
			c-6,2-8.8,9.2-8.4,13.5c0.1,1.3,0.5,2.7,0.2,4c-0.3,1.3-1.5,2.5-2.8,2.3c-1.1-0.2-1.8-1.3-2.2-2.3c-2-4.6,1.2-21.9,11.2-24.6
			c8.4-2.3,21.2,5.8,24.5,21.4C-441.5,649.4-444,648.6-445.8,646.7z M-457.9,623.2c-0.9-1.6-0.6-3.5,0-5.6
			c3.1-9.8,15.5-23.5,19-27.3c2,5,5.2,11.7,10.7,18.3c5.9,7.1,10.6,9.8,9.7,12.3c-1.1,3-9.7,3.8-15.8,0.3c-3.4-1.9-5.4-4.8-6.3-6.5
			c-2.9,1.1-5.8,2.2-8.7,3.3c2.1,1,4.5,2.3,7,4.1c3.4,2.4,6.1,4.9,8,7.1c-5.5-1-9.8-1.7-12.3-2.2
			C-453.6,626-456.6,625.6-457.9,623.2z M-415.9,646c0-2.5-1.5-4.9-3.7-6.1c-2.6-0.7-5,4.1-7,2.4c-0.9-0.8-0.6-2.3,0-3.3
			c1.6-2.6,4.8-4,7.8-3.5s5.5,3,6.2,5.9C-412.2,643.5-413.7,646.6-415.9,646z M-405.9,649.6c-1.4,1.6-4.2,0-4.7-2.1
			c-0.5-2.1,0.3-4.2,0.4-6.3c0.2-4.2-2.8-8.3-6.9-9.4c-4-1.1-8.7,0.9-10.7,4.6c-1,1.8-1.4,4.1-3,5.4c-1.6,1.4-4.9,0.7-4.7-1.4
			c1.1-9.4,11.7-16.6,20.7-13.8C-405.7,629.4-401,641.5-405.9,649.6z"/>
	</g>
	
		<ellipse transform="matrix(0.9999 -1.610420e-02 1.610420e-02 0.9999 -9.8571 -7.0038)" class="st0" cx="-439.8" cy="608.5" rx="5.2" ry="1.7"/>
</g>
<g>
	<g>
		<g>
			<path class="st0" d="M-295.1,111.4c13.7,0,24.1,5,27.1,13.1c2.3,6.2,0.3,13.7-5.6,21.2c-6.3,7.9-16.1,14.6-27.6,18.9
				c-8.1,3-16.4,4.6-24.2,4.6c-13.7,0-24.1-5-27.1-13.1c-2.3-6.2-0.3-13.7,5.6-21.2c6.3-7.9,16.1-14.6,27.6-18.9
				C-311.2,113-302.8,111.4-295.1,111.4L-295.1,111.4 M-295.1,108.4c-7.8,0-16.5,1.5-25.2,4.8c-24.9,9.3-40.6,28.9-35,43.9
				c3.6,9.7,15.3,15.1,29.9,15.1c7.8,0,16.5-1.5,25.2-4.8c24.9-9.3,40.6-28.9,35-43.9C-268.8,113.7-280.5,108.4-295.1,108.4
				L-295.1,108.4z"/>
		</g>
		<g>
			<path class="st0" d="M-256.7,125.8v3c10.7,0,18.7,3.8,21.3,10c2.1,5,0.7,11.3-4,17.7c-5,6.8-13.1,12.7-22.6,16.7
				c-7.3,3-14.9,4.6-21.9,4.6c-10.7,0-18.7-3.8-21.3-10c-4.5-10.8,7.7-26.5,26.7-34.4c7.3-3,14.9-4.6,21.9-4.6L-256.7,125.8
				 M-256.7,125.8c-7.1,0-15.1,1.6-23,4.9c-20.8,8.6-33.5,25.8-28.3,38.3c3.2,7.7,12.5,11.9,24,11.9c7.1,0,15.1-1.6,23-4.9
				c20.8-8.6,33.5-25.8,28.3-38.3C-235.9,129.9-245.2,125.8-256.7,125.8L-256.7,125.8z"/>
		</g>
		<g>
			<path class="st0" d="M-260.7,160v3l0,0c8.3,0,14.6,2.9,16.3,7.7c1.3,3.6,0.1,8-3.4,12.5c-3.9,4.9-10,9-17.2,11.7
				c-5,1.9-10.3,2.9-15.1,2.9c-8.3,0-14.6-2.9-16.3-7.7c-2.9-7.9,6.5-19,20.6-24.2c5-1.9,10.3-2.9,15.1-2.9L-260.7,160 M-260.7,160
				c-5,0-10.6,1-16.1,3.1c-15.9,5.9-25.9,18.5-22.4,28.1c2.3,6.2,9.8,9.7,19.2,9.7c5,0,10.6-1,16.1-3.1
				c15.9-5.9,25.9-18.5,22.4-28.1C-243.8,163.4-251.3,160-260.7,160L-260.7,160z"/>
		</g>
	</g>
</g>
<path class="st0" d="M-749,350.4c1-7.1,8-63.1-32.6-104.3c-25.1-25.5-55.1-31.9-66.7-33.8c9,0.8,19.3,2.4,30.3,5.1
	c20.2,5.1,36.7,12.6,49,19.5c-5.9-8.9-13.1-18.6-21.8-28.5c-13.3-15.2-26.7-27.1-38.5-36.2c6.2,2.4,73.4,29.5,88.5,98
	C-732.6,307-743.5,337.6-749,350.4z"/>
<path class="st0" d="M-818.2,360.2c1.1-7.1,8.9-62.9-31.2-104.8c-24.8-25.8-54.6-32.6-66.3-34.6c9,0.9,19.2,2.6,30.2,5.5
	c20.2,5.3,36.5,13.1,48.7,20.2c-5.8-9-12.9-18.8-21.4-28.8c-13.1-15.4-26.3-27.5-38-36.8c6.1,2.5,73,30.5,87.2,99.2
	C-801.2,317-812.5,347.4-818.2,360.2z"/>
<g>
	<path class="st1" d="M-80.5,400.8c-2.1-2.2-5-5.1-8.5-8.2c1.9-1.8,3.2-3.1,3.8-3.6c-1.6,0.9-3.2,1.8-4.9,2.7
		c-7.9-6.9-19-14.9-33.3-21.3c3.3-5.1,6.2-10,8.8-14.7c-2.1,3.3-5.5,8.3-10.2,14c-0.2-0.1-0.4-0.2-0.6-0.3c4.5-15.1,6-28.5,6.6-36.9
		c6-2.2,10.3-3.3,12-3.7c-3.1-0.1-7.1-0.1-11.8,0.2c0.1-2.6,0.1-4.4,0.1-5.2c-0.5,1.7-1,3.5-1.6,5.3c-10.4,0.8-24,2.9-38.6,8.5
		c-1.2-6-2.7-11.5-4.2-16.6c0.9,3.8,2,9.8,2.7,17.2c-0.2,0.1-0.4,0.2-0.6,0.3c-7.5-13.9-15.9-24.4-21.4-30.7c2.7-5.8,5-9.6,5.8-11.1
		c-2.2,2.1-5.1,5-8.2,8.5c-1.8-1.9-3.1-3.2-3.6-3.8c0.9,1.6,1.8,3.2,2.7,4.9c-6.9,7.9-14.9,19-21.3,33.3c-5.1-3.3-10-6.2-14.7-8.8
		c3.3,2.1,8.3,5.5,14,10.2c-0.1,0.2-0.2,0.4-0.3,0.6c-15.1-4.5-28.5-6-36.9-6.6c-2.2-6-3.3-10.3-3.7-12c-0.1,3.1-0.1,7.1,0.2,11.8
		c-2.6-0.1-4.4-0.1-5.2-0.1c1.7,0.5,3.5,1,5.3,1.6c0.8,10.4,2.9,24,8.5,38.6c-6,1.2-11.5,2.7-16.6,4.2c3.8-0.9,9.8-2,17.2-2.7
		c0.1,0.2,0.2,0.4,0.3,0.6c-13.9,7.5-24.4,15.9-30.7,21.4c-5.8-2.7-9.6-5-11.1-5.8c2.1,2.2,5,5.1,8.5,8.2c-1.9,1.8-3.2,3.1-3.8,3.6
		c1.6-0.9,3.2-1.8,4.9-2.7c7.9,6.9,19,14.9,33.3,21.3c-3.3,5.1-6.2,10-8.8,14.7c2.1-3.3,5.5-8.3,10.2-14c0.2,0.1,0.4,0.2,0.6,0.3
		c-4.5,15.1-6,28.5-6.6,36.9c-6,2.2-10.3,3.3-12,3.7c3.1,0.1,7.1,0.1,11.8-0.2c-0.1,2.6-0.1,4.4-0.1,5.2c0.5-1.7,1-3.5,1.6-5.3
		c10.4-0.8,24-2.9,38.6-8.5c1.2,6,2.7,11.5,4.2,16.6c-0.9-3.8-2-9.8-2.7-17.2c0.2-0.1,0.4-0.2,0.6-0.3c7.5,13.9,15.9,24.4,21.4,30.7
		c-2.7,5.8-5,9.6-5.8,11.1c2.2-2.1,5.1-5,8.2-8.5c1.8,1.9,3.1,3.2,3.6,3.8c-0.9-1.6-1.8-3.2-2.7-4.9c6.9-7.9,14.9-19,21.3-33.3
		c5.1,3.3,10,6.2,14.7,8.8c-3.3-2.1-8.3-5.5-14-10.2c0.1-0.2,0.2-0.4,0.3-0.6c15.1,4.5,28.5,6,36.9,6.6c2.2,6,3.3,10.3,3.7,12
		c0.1-3.1,0.1-7.1-0.2-11.8c2.6,0.1,4.4,0.1,5.2,0.1c-1.7-0.5-3.5-1-5.3-1.6c-0.8-10.4-2.9-24-8.5-38.6c6-1.2,11.5-2.7,16.6-4.2
		c-3.8,0.9-9.8,2-17.2,2.7c-0.1-0.2-0.2-0.4-0.3-0.6c13.9-7.5,24.4-15.9,30.7-21.4C-85.8,397.6-81.9,399.9-80.5,400.8z
		 M-121.6,333.6c-3.3,10-7.4,21-12.9,32.5c-5.1-1.7-10.4-3.1-16.1-4.2c-1.2-3.5-2.5-6.8-3.9-10.1
		C-142.6,342.8-130.6,337.1-121.6,333.6z M-183.6,310.4c4.8,9.4,9.6,20.1,13.8,32.1c-4.8,2.4-9.6,5.2-14.4,8.4
		c-3.3-1.6-6.6-3.1-9.9-4.4C-191.9,331.8-187.5,319.3-183.6,310.4z M-243.7,337.8c10,3.3,21,7.4,32.5,12.9
		c-1.7,5.1-3.1,10.4-4.2,16.1c-3.5,1.2-6.8,2.5-10.1,3.9C-234.5,358.8-240.2,346.8-243.7,337.8z M-266.9,399.8
		c9.4-4.8,20.1-9.6,32.1-13.8c2.4,4.8,5.2,9.6,8.4,14.4c-1.6,3.3-3.1,6.6-4.4,9.9C-245.5,408.1-258,403.7-266.9,399.8z
		 M-239.5,459.9c3.3-10,7.4-21,12.9-32.5c5.1,1.7,10.4,3.1,16.1,4.2c1.2,3.5,2.5,6.8,3.9,10.1C-218.5,450.7-230.5,456.4-239.5,459.9
		z M-177.5,483.1c-4.8-9.4-9.6-20.1-13.8-32.1c4.8-2.4,9.6-5.2,14.4-8.4c3.3,1.6,6.6,3.1,9.9,4.4
		C-169.2,461.7-173.6,474.2-177.5,483.1z M-155,419.3l-6.2,18l-18-6.2l-16.2,7.9l-7.9-16.2l-17-5.9l1.9-5.6c0,0,0,0,0,0
		c0,0,0,0,0-0.1l3.9-11.4l-8.3-17.1l17.1-8.3l6.2-18l18,6.2l16.2-7.9l7.9,16.2l17,5.9l-5.9,17l8.3,17.1L-155,419.3z M-117.4,455.7
		c-10-3.3-21-7.4-32.5-12.9c1.7-5.1,3.1-10.4,4.2-16.1c3.5-1.2,6.8-2.5,10.1-3.9C-126.6,434.7-120.9,446.7-117.4,455.7z
		 M-126.2,407.6c-2.4-4.8-5.2-9.6-8.4-14.4c1.6-3.3,3.1-6.6,4.4-9.9c14.7,2.1,27.2,6.5,36.1,10.5
		C-103.6,398.5-114.3,403.3-126.2,407.6z"/>
	<path class="st1" d="M-180.5,373.3c-12.9,0-23.4,10.5-23.4,23.4s10.5,23.4,23.4,23.4c12.9,0,23.4-10.5,23.4-23.4
		S-167.6,373.3-180.5,373.3z M-180.5,411.4c-8.1,0-14.6-6.5-14.6-14.6s6.5-14.6,14.6-14.6s14.6,6.5,14.6,14.6
		S-172.5,411.4-180.5,411.4z"/>
</g>
</svg>
