<?xml version="1.0" encoding="utf-8"?>
<!-- Generator: Adobe Illustrator 19.1.0, SVG Export Plug-In . SVG Version: 6.00 Build 0)  -->
<svg version="1.1" id="Layer_1" xmlns="http://www.w3.org/2000/svg" xmlns:xlink="http://www.w3.org/1999/xlink" x="0px" y="0px"
	 viewBox="-672 236.9 124.9 92.5" style="enable-background:new -672 236.9 124.9 92.5;" xml:space="preserve">
<style type="text/css">
	.st0{fill:#50BFAB;}
</style>
<g>
	<g>
		<path class="st0" d="M-145.7,306c-16.6-25.7-33.2-51.3-49.8-77c-17.6,25.7-35.1,51.3-52.7,77C-214,306-179.8,306-145.7,306z
			 M-208.2,294.5c-1.6-1.8-4.2-2.6-6.5-2.2c-4.2,0.8-6.7,5.1-8.7,9c-2-4.2-0.5-9.7,3.4-12.2s9.6-1.6,12.5,1.9
			C-206.4,292.2-206.7,295.1-208.2,294.5z M-202.8,296.2c-2.3-2.5-1.6-4.8-3.3-7.3c-2.4-3.5-8.2-5.5-13-3.9c-6,2-8.8,9.2-8.4,13.5
			c0.1,1.3,0.5,2.7,0.2,4c-0.3,1.3-1.5,2.5-2.8,2.3c-1.1-0.2-1.8-1.3-2.2-2.3c-2-4.6,1.2-21.9,11.2-24.6c8.4-2.3,21.2,5.8,24.5,21.4
			C-198.5,298.9-201,298.1-202.8,296.2z M-214.9,272.7c-0.9-1.6-0.6-3.5,0-5.6c3.1-9.8,15.5-23.5,19-27.3c2,5,5.2,11.7,10.7,18.3
			c5.9,7.1,10.6,9.8,9.7,12.3c-1.1,3-9.7,3.8-15.8,0.3c-3.4-1.9-5.4-4.8-6.3-6.5c-2.9,1.1-5.8,2.2-8.7,3.3c2.1,1,4.5,2.3,7,4.1
			c3.4,2.4,6.1,4.9,8,7.1c-5.5-1-9.8-1.7-12.3-2.2C-210.6,275.5-213.6,275.1-214.9,272.7z M-172.9,295.5c0-2.5-1.5-4.9-3.7-6.1
			c-2.6-0.7-5,4.1-7,2.4c-0.9-0.8-0.6-2.3,0-3.3c1.6-2.6,4.8-4,7.8-3.5s5.5,3,6.2,5.9C-169.2,293-170.7,296.1-172.9,295.5z
			 M-162.9,299.1c-1.4,1.6-4.2,0-4.7-2.1c-0.5-2.1,0.3-4.2,0.4-6.3c0.2-4.2-2.8-8.3-6.9-9.4c-4-1.1-8.7,0.9-10.7,4.6
			c-1,1.8-1.4,4.1-3,5.4c-1.6,1.4-4.9,0.7-4.7-1.4c1.1-9.4,11.7-16.6,20.7-13.8C-162.7,278.9-158,291-162.9,299.1z"/>
	</g>
	
		<ellipse transform="matrix(1.610468e-02 0.9999 -0.9999 1.610468e-02 64.3351 450.6649)" class="st0" cx="-196.8" cy="258" rx="1.7" ry="5.2"/>
</g>
<g>
	<g>
		<g>
			<path class="st0" d="M-610.7,239.9c13.7,0,24.1,5,27.1,13.1c2.3,6.2,0.3,13.7-5.6,21.2c-6.3,7.9-16.1,14.6-27.6,18.9
				c-8.1,3-16.4,4.6-24.2,4.6c-13.7,0-24.1-5-27.1-13.1c-2.3-6.2-0.3-13.7,5.6-21.2c6.3-7.9,16.1-14.6,27.6-18.9
				C-626.8,241.5-618.4,239.9-610.7,239.9L-610.7,239.9 M-610.7,236.9c-7.8,0-16.5,1.5-25.2,4.8c-24.9,9.3-40.6,28.9-35,43.9
				c3.6,9.7,15.3,15.1,29.9,15.1c7.8,0,16.5-1.5,25.2-4.8c24.9-9.3,40.6-28.9,35-43.9C-584.4,242.2-596.1,236.9-610.7,236.9
				L-610.7,236.9z"/>
		</g>
		<g>
			<path class="st0" d="M-572.3,254.3v3c10.7,0,18.7,3.8,21.3,10c2.1,5,0.7,11.3-4,17.7c-5,6.8-13.1,12.7-22.6,16.7
				c-7.3,3-14.9,4.6-21.9,4.6c-10.7,0-18.7-3.8-21.3-10c-4.5-10.8,7.7-26.5,26.7-34.4c7.3-3,14.9-4.6,21.9-4.6L-572.3,254.3
				 M-572.3,254.3c-7.1,0-15.1,1.6-23,4.9c-20.8,8.6-33.5,25.8-28.3,38.3c3.2,7.7,12.5,11.9,24,11.9c7.1,0,15.1-1.6,23-4.9
				c20.8-8.6,33.5-25.8,28.3-38.3C-551.5,258.4-560.8,254.3-572.3,254.3L-572.3,254.3z"/>
		</g>
		<g>
			<path class="st0" d="M-576.3,288.5v3l0,0c8.3,0,14.6,2.9,16.3,7.7c1.3,3.6,0.1,8-3.4,12.5c-3.9,4.9-10,9-17.2,11.7
				c-5,1.9-10.3,2.9-15.1,2.9c-8.3,0-14.6-2.9-16.3-7.7c-2.9-7.9,6.5-19,20.6-24.2c5-1.9,10.3-2.9,15.1-2.9V288.5 M-576.3,288.5
				c-5,0-10.6,1-16.1,3.1c-15.9,5.9-25.9,18.5-22.4,28.1c2.3,6.2,9.8,9.7,19.2,9.7c5,0,10.6-1,16.1-3.1
				c15.9-5.9,25.9-18.5,22.4-28.1C-559.4,291.9-566.9,288.5-576.3,288.5L-576.3,288.5z"/>
		</g>
	</g>
</g>
</svg>
