<?xml version="1.0" encoding="utf-8"?>
<!-- Generator: Adobe Illustrator 19.1.0, SVG Export Plug-In . SVG Version: 6.00 Build 0)  -->
<svg version="1.1" id="Layer_1" xmlns="http://www.w3.org/2000/svg" xmlns:xlink="http://www.w3.org/1999/xlink" x="0px" y="0px"
	 viewBox="0 0 102.3 77" style="enable-background:new 0 0 102.3 77;" xml:space="preserve">
<style type="text/css">
	.st0{fill:#50BFAB;}
</style>
<g>
	<g>
		<path class="st0" d="M102.3,77C85.7,51.3,69.1,25.7,52.5,0C34.9,25.7,17.4,51.3-0.2,77C34,77,68.2,77,102.3,77z M39.8,65.5
			c-1.6-1.8-4.2-2.6-6.5-2.2c-4.2,0.8-6.7,5.1-8.7,9c-2-4.2-0.5-9.7,3.4-12.2c3.9-2.5,9.6-1.6,12.5,1.9
			C41.6,63.2,41.3,66.1,39.8,65.5z M45.2,67.2c-2.3-2.5-1.6-4.8-3.3-7.3c-2.4-3.5-8.2-5.5-13-3.9c-6,2-8.8,9.2-8.4,13.5
			c0.1,1.3,0.5,2.7,0.2,4s-1.5,2.5-2.8,2.3c-1.1-0.2-1.8-1.3-2.2-2.3c-2-4.6,1.2-21.9,11.2-24.6c8.4-2.3,21.2,5.8,24.5,21.4
			C49.5,69.9,47,69.1,45.2,67.2z M33.1,43.7c-0.9-1.6-0.6-3.5,0-5.6c3.1-9.8,15.5-23.5,19-27.3c2,5,5.2,11.7,10.7,18.3
			c5.9,7.1,10.6,9.8,9.7,12.3c-1.1,3-9.7,3.8-15.8,0.3c-3.4-1.9-5.4-4.8-6.3-6.5c-2.9,1.1-5.8,2.2-8.7,3.3c2.1,1,4.5,2.3,7,4.1
			c3.4,2.4,6.1,4.9,8,7.1c-5.5-1-9.8-1.7-12.3-2.2C37.4,46.5,34.4,46.1,33.1,43.7z M75.1,66.5c0-2.5-1.5-4.9-3.7-6.1
			c-2.6-0.7-5,4.1-7,2.4c-0.9-0.8-0.6-2.3,0-3.3c1.6-2.6,4.8-4,7.8-3.5c3,0.5,5.5,3,6.2,5.9C78.8,64,77.3,67.1,75.1,66.5z
			 M85.1,70.1c-1.4,1.6-4.2,0-4.7-2.1c-0.5-2.1,0.3-4.2,0.4-6.3c0.2-4.2-2.8-8.3-6.9-9.4c-4-1.1-8.7,0.9-10.7,4.6
			c-1,1.8-1.4,4.1-3,5.4c-1.6,1.4-4.9,0.7-4.7-1.4c1.1-9.4,11.7-16.6,20.7-13.8C85.3,49.9,90,62,85.1,70.1z"/>
	</g>
	
		<ellipse transform="matrix(-0.9999 1.610516e-02 -1.610516e-02 -0.9999 102.7384 57.1964)" class="st0" cx="51.1" cy="29" rx="5.2" ry="1.7"/>
</g>
<g>
	<g>
		<g>
			<path class="st0" d="M-356.7-118.1c13.7,0,24.1,5,27.1,13.1c2.3,6.2,0.3,13.7-5.6,21.2c-6.3,7.9-16.1,14.6-27.6,18.9
				c-8.1,3-16.4,4.6-24.2,4.6c-13.7,0-24.1-5-27.1-13.1c-2.3-6.2-0.3-13.7,5.6-21.2c6.3-7.9,16.1-14.6,27.6-18.9
				C-372.8-116.5-364.4-118.1-356.7-118.1L-356.7-118.1 M-356.7-121.1c-7.8,0-16.5,1.5-25.2,4.8c-24.9,9.3-40.6,28.9-35,43.9
				c3.6,9.7,15.3,15.1,29.9,15.1c7.8,0,16.5-1.5,25.2-4.8c24.9-9.3,40.6-28.9,35-43.9C-330.4-115.8-342.1-121.1-356.7-121.1
				L-356.7-121.1z"/>
		</g>
		<g>
			<path class="st0" d="M-318.3-103.7v3c10.7,0,18.7,3.8,21.3,10c2.1,5,0.7,11.3-4,17.7c-5,6.8-13.1,12.7-22.6,16.7
				c-7.3,3-14.9,4.6-21.9,4.6c-10.7,0-18.7-3.8-21.3-10c-4.5-10.8,7.7-26.5,26.7-34.4c7.3-3,14.9-4.6,21.9-4.6L-318.3-103.7
				 M-318.3-103.7c-7.1,0-15.1,1.6-23,4.9c-20.8,8.6-33.5,25.8-28.3,38.3c3.2,7.7,12.5,11.9,24,11.9c7.1,0,15.1-1.6,23-4.9
				c20.8-8.6,33.5-25.8,28.3-38.3C-297.5-99.6-306.8-103.7-318.3-103.7L-318.3-103.7z"/>
		</g>
		<g>
			<path class="st0" d="M-322.3-69.5v3h0c8.3,0,14.6,2.9,16.3,7.7c1.3,3.6,0.1,8-3.4,12.5c-3.9,4.9-10,9-17.2,11.7
				c-5,1.9-10.3,2.9-15.1,2.9c-8.3,0-14.6-2.9-16.3-7.7c-2.9-7.9,6.5-19,20.6-24.2c5-1.9,10.3-2.9,15.1-2.9L-322.3-69.5
				 M-322.3-69.5c-5,0-10.6,1-16.1,3.1c-15.9,5.9-25.9,18.5-22.4,28.1c2.3,6.2,9.8,9.7,19.2,9.7c5,0,10.6-1,16.1-3.1
				c15.9-5.9,25.9-18.5,22.4-28.1C-305.4-66.1-312.9-69.5-322.3-69.5L-322.3-69.5z"/>
		</g>
	</g>
</g>
</svg>
