<?xml version="1.0" encoding="utf-8"?>
<!-- Generator: Adobe Illustrator 19.1.0, SVG Export Plug-In . SVG Version: 6.00 Build 0)  -->
<svg version="1.1" id="Layer_1" xmlns="http://www.w3.org/2000/svg" xmlns:xlink="http://www.w3.org/1999/xlink" x="0px" y="0px"
	 viewBox="-232.2 325.8 184.1 184.1" style="enable-background:new -232.2 325.8 184.1 184.1;" xml:space="preserve">
<path d="M-100.7,334.7c-45.9-21.8-100.8-2.2-122.6,43.7c-21.8,45.9-2.2,100.8,43.7,122.6c45.9,21.8,100.8,2.2,122.6-43.7
	C-35.2,411.4-54.8,356.5-100.7,334.7z M-118.5,494.2l-2,4.1l-57.1-90.6l-24.6,51.9l-12.7-6c10.1-21.2,21.9-46.1,32-67.4l65.6,105.2
	l0.2-0.1L-118.5,494.2z M-116,488.8l-65.7-105.3l14.9-31.3l65.7,105.3L-116,488.8z M-99.8,454.8l-65.7-105.3l1.6-3.3l65.7,105.3
	L-99.8,454.8z M-97,448.9l-65.7-105.3l2.9-6.2l58.1,90l24.6-50.8l11.8,5.6L-97,448.9z"/>
</svg>
